<?xml version="1.0" ?><svg height="32" id="svg4475" version="1.1" width="32" xmlns="http://www.w3.org/2000/svg" xmlns:cc="http://creativecommons.org/ns#" xmlns:dc="http://purl.org/dc/elements/1.1/" xmlns:inkscape="http://www.inkscape.org/namespaces/inkscape" xmlns:rdf="http://www.w3.org/1999/02/22-rdf-syntax-ns#" xmlns:sodipodi="http://sodipodi.sourceforge.net/DTD/sodipodi-0.dtd" xmlns:svg="http://www.w3.org/2000/svg"><defs id="defs4477"/><g id="layer1" transform="translate(0,-1020.3622)"><g id="g10414" transform="translate(309.5948,-461.25192)"><g id="g15415" transform="translate(66.405195,515.25192)"><g id="g15417" transform="translate(-150,-49.999983)"><g id="g14600" transform="translate(-49.999995,-130.00002)"><path d="m -161.65597,1148.3619 a 0.50005,0.50005 0 0 0 -0.34375,0.5 l 0,3 a 0.50005,0.50005 0 0 0 0.5,0.5 l 1,0 0,1 -2,0 a 0.50004997,0.50004997 0 0 0 -0.15625,0 0.50004997,0.50004997 0 0 0 -0.34375,0.5 l 0,8 -1,0 0,-2 a 0.50004997,0.50004997 0 0 0 -0.5,-0.5 l -10,0 a 0.50004997,0.50004997 0 0 0 -0.15625,0 0.50004997,0.50004997 0 0 0 -0.34375,0.5 l 0,2 0,1 0,2 a 0.50004997,0.50004997 0 0 0 0.5,0.5 l 10,0 a 0.50004997,0.50004997 0 0 0 0.5,-0.5 l 0,-2 1,0 0,4 a 0.50004997,0.50004997 0 0 0 0.5,0.5 l 2,0 0,2.0625 c -1.70162,0.2142 -3.06513,1.4965 -3.40625,3.1562 -0.0192,0.093 -0.0187,0.1856 -0.0312,0.2813 l -3.125,0 c -0.24416,-1.4094 -1.46071,-2.5 -2.9375,-2.5 a 0.50005,0.50005 0 0 0 -0.5,0.5 l 0,2.5 0,2.5 a 0.50005,0.50005 0 0 0 0,0.094 0.50005,0.50005 0 0 0 0.5,0.4063 c 1.48543,0 2.7036,-1.0785 2.9375,-2.5 l 3.125,0 c 0.24781,1.9681 1.90395,3.5 3.9375,3.5 2.03355,0 3.68969,-1.5319 3.9375,-3.5 l 3.125,0 c 0.2339,1.4215 1.45207,2.5 2.9375,2.5 a 0.50005,0.50005 0 0 0 0.5,-0.4063 0.50005,0.50005 0 0 0 0,-0.094 l 0,-2.5 0,-2.5 a 0.50005,0.50005 0 0 0 -0.5,-0.5 c -1.47679,0 -2.69334,1.0906 -2.9375,2.5 l -3.125,0 c -0.23497,-1.7948 -1.64003,-3.2112 -3.4375,-3.4375 l 0,-2.0625 2,0 a 0.50004997,0.50004997 0 0 0 0.5,-0.5 l 0,-4 1,0 0,2 a 0.50005,0.50005 0 0 0 0.5,0.5 l 10,0 a 0.50005,0.50005 0 0 0 0.5,-0.5 l 0,-5 a 0.50005,0.50005 0 0 0 -0.5,-0.5 l -10,0 a 0.50005,0.50005 0 0 0 -0.15625,0 0.50005,0.50005 0 0 0 -0.34375,0.5 l 0,2 -0.5,0 -0.5,0 0,-8 a 0.50004997,0.50004997 0 0 0 -0.5,-0.5 l -2,0 0,-1 1,0 a 0.50005,0.50005 0 0 0 0.5,-0.5 l 0,-3 a 0.50005,0.50005 0 0 0 -0.5,-0.5 l -3,0 a 0.50005,0.50005 0 0 0 -0.15625,0 z m 0.65625,1 2,0 0,2 -2,0 0,-2 z m -1,5 4,0 0,6 -4,0 0,-6 z m -12,6 1,0 0,1.5 -1,0 0,-1.5 z m 2,0 1,0 0,1.5 -1,0 0,-1.5 z m 2,0 1,0 0,1.5 -1,0 0,-1.5 z m 2,0 1,0 0,1.5 -1,0 0,-1.5 z m 2,0 1,0 0,1.5 -1,0 0,-1.5 z m 11,0 1,0 0,1.5 -1,0 0,-1.5 z m 2,0 1,0 0,1.5 -1,0 0,-1.5 z m 2,0 1,0 0,1.5 -1,0 0,-1.5 z m 2,0 1,0 0,1.5 -1,0 0,-1.5 z m 2,0 1,0 0,1.5 -1,0 0,-1.5 z m -15,1 4,0 0,5 -4,0 0,-5 z m -12,1.5 1,0 0,1.5 -1,0 0,-1.5 z m 2,0 1,0 0,1.5 -1,0 0,-1.5 z m 2,0 1,0 0,1.5 -1,0 0,-1.5 z m 2,0 1,0 0,1.5 -1,0 0,-1.5 z m 2,0 1,0 0,1.5 -1,0 0,-1.5 z m 11,0 1,0 0,1.5 -1,0 0,-1.5 z m 2,0 1,0 0,1.5 -1,0 0,-1.5 z m 2,0 1,0 0,1.5 -1,0 0,-1.5 z m 2,0 1,0 0,1.5 -1,0 0,-1.5 z m 2,0 1,0 0,1.5 -1,0 0,-1.5 z m -13,7.5 c 1.66277,0 3,1.3372 3,3 0,1.6628 -1.33723,3 -3,3 -1.66277,0 -3,-1.3372 -3,-3 0,-0.2079 0.0227,-0.3981 0.0625,-0.5938 0.27869,-1.3699 1.48258,-2.4062 2.9375,-2.4062 z m -9.5,1.1875 c 0.8335,0.2412 1.5,0.8977 1.5,1.8125 0,0.912 -0.67043,1.5376 -1.5,1.7812 l 0,-1.7812 0,-1.8125 z m 19,0 0,1.8125 0,1.7812 c -0.82957,-0.2436 -1.5,-0.8692 -1.5,-1.7812 0,-0.9148 0.6665,-1.5713 1.5,-1.8125 z" id="rect8861" style="font-size:medium;font-style:normal;font-variant:normal;font-weight:normal;font-stretch:normal;text-indent:0;text-align:start;text-decoration:none;line-height:normal;letter-spacing:normal;word-spacing:normal;text-transform:none;direction:ltr;block-progression:tb;writing-mode:lr-tb;text-anchor:start;baseline-shift:baseline;color:#000000;fill:#000000;fill-opacity:1;stroke:none;stroke-width:0.99999994;marker:none;visibility:visible;display:inline;overflow:visible;enable-background:accumulate;font-family:Sans;-inkscape-font-specification:Sans"/></g></g></g></g></g></svg>