<?xml version="1.0" ?><svg height="32" id="svg4475" version="1.1" width="32" xmlns="http://www.w3.org/2000/svg" xmlns:cc="http://creativecommons.org/ns#" xmlns:dc="http://purl.org/dc/elements/1.1/" xmlns:inkscape="http://www.inkscape.org/namespaces/inkscape" xmlns:rdf="http://www.w3.org/1999/02/22-rdf-syntax-ns#" xmlns:sodipodi="http://sodipodi.sourceforge.net/DTD/sodipodi-0.dtd" xmlns:svg="http://www.w3.org/2000/svg"><defs id="defs4477"/><g id="layer1" transform="translate(0,-1020.3622)"><g id="g10414" transform="translate(309.5948,-461.25192)"><g id="g15415" transform="translate(66.405195,515.25192)"><g id="g15417" transform="translate(-150,-49.999983)"><g id="g14600" transform="translate(-49.999995,-130.00002)"><path d="M 15.9375 2.8125 C 12.34843 2.8125 9.1183575 4.3079 6.78125 6.6875 A 0.50004997 0.50004997 0 0 0 6.78125 6.71875 C 6.7662124 6.7341149 6.7337128 6.7345605 6.71875 6.75 A 0.50004997 0.50004997 0 0 0 6.5625 6.875 C 6.4302256 7.0480223 6.2720156 7.2316684 6.125 7.40625 C 6.063372 7.478988 5.9975679 7.5508966 5.9375 7.625 C 5.8791177 7.6943652 5.8398927 7.7726411 5.78125 7.84375 C 5.7491868 7.8850029 5.7190828 7.9271018 5.6875 7.96875 C 5.5847564 8.0958001 5.4743916 8.2081584 5.375 8.34375 C 5.3100763 8.4363132 5.2500915 8.5306888 5.1875 8.625 C 5.1247276 8.7192361 5.0588712 8.8064375 5 8.90625 A 0.50004997 0.50004997 0 0 0 4.9375 9.09375 C 3.7419707 11.062745 3.0233922 13.345782 3 15.8125 A 0.50004997 0.50004997 0 0 0 3 15.875 C 2.9998985 15.896396 3 15.916081 3 15.9375 C 3 16.611437 3.0632962 17.288955 3.15625 17.9375 C 3.1573656 17.947703 3.1551402 17.958557 3.15625 17.96875 A 0.50004997 0.50004997 0 0 0 3.1875 18.125 C 3.2719628 18.66248 3.3854881 19.17367 3.53125 19.6875 C 2.3199145 20.782991 1.3134684 21.657291 0.6875 22.5 C 0.35327 22.9499 0.10735 23.3838 0.03125 23.875 C -0.04325 24.3562 0.07355 24.8555 0.34375 25.3125 C 0.3498 25.317 0.34025 25.33725 0.34375 25.34375 C 0.7891 26.16905 1.65977 26.71365 2.78125 26.84375 C 3.92051 26.97585 5.35635 26.75585 7.125 26.15625 C 7.2539089 26.111552 7.3999334 26.047231 7.53125 26 C 9.8161315 27.955644 12.728268 29.1875 15.9375 29.1875 C 22.768663 29.1875 28.349427 23.802923 28.875 17 A 0.50004997 0.50004997 0 0 0 28.875 16.96875 C 28.900159 16.633235 28.9375 16.279322 28.9375 15.9375 C 28.9375 14.899549 28.802224 13.94546 28.59375 13 C 29.741469 11.908886 30.741665 10.773481 31.34375 9.71875 C 31.68782 9.11595 31.89744 8.52095 31.96875 7.96875 C 32.03555 7.45135 31.89795 6.9558 31.5625 6.5625 L 31.59375 6.53125 C 31.58085 6.51125 31.54485 6.519 31.53125 6.5 C 31.11784 5.928 30.34773 5.7192 29.34375 5.75 C 29.33245 5.7503 29.3238 5.7496 29.3125 5.75 A 0.50004997 0.50004997 0 0 0 29.28125 5.71875 L 29.15625 5.71875 A 0.50004997 0.50004997 0 0 0 29.125 5.71875 C 28.090781 5.7936481 26.670836 6.1439976 25.09375 6.6875 C 22.740756 4.308009 19.509329 2.8125 15.9375 2.8125 z M 15.9375 3.8125 C 19.612223 3.8125 22.894772 5.5054547 25.09375 8.15625 C 25.165813 8.2448477 25.255835 8.3607083 25.3125 8.4375 A 0.50004997 0.50004997 0 0 0 25.375 8.53125 C 25.876167 9.1842296 26.322766 9.8753265 26.6875 10.625 L 20.75 10.625 C 19.92049 10.625 19.3125 11.3167 19.3125 12.0625 C 19.3125 12.8085 19.92049 13.53125 20.75 13.53125 L 22.5625 13.53125 L 23.6875 13.53125 C 22.417358 14.492364 21.01508 15.474222 19.46875 16.46875 L 17.8125 16.46875 C 16.51526 16.46875 15.4375 17.5701 15.4375 18.875 L 15.4375 18.9375 C 12.027987 20.90486 8.7532944 22.41781 6.34375 23.25 C 5.7981445 22.523077 5.3625647 21.728796 5 20.875 A 0.50004997 0.50004997 0 0 0 4.96875 20.75 C 4.8660357 20.488643 4.7607238 20.228956 4.65625 19.96875 C 4.489295 19.466652 4.352719 18.967782 4.25 18.4375 L 9.25 18.4375 C 10.04385 18.4375 10.6875 17.76165 10.6875 16.96875 C 10.6875 16.13785 10.04392 15.4375 9.25 15.4375 L 4.03125 15.4375 C 4.0403295 15.214907 4.0417811 15.000634 4.0625 14.78125 L 9.25 14.78125 A 0.50004997 0.50004997 0 1 0 9.25 13.78125 L 4.21875 13.78125 C 4.483417 12.287824 4.9996326 10.90699 5.75 9.65625 L 14.0625 9.65625 C 14.85634 9.65625 15.5 8.9805 15.5 8.1875 C 15.5 7.3567 14.85641 6.6875 14.0625 6.6875 L 8.25 6.6875 C 10.324787 4.9054753 12.991359 3.8125 15.9375 3.8125 z M 17.875 6.6875 C 17.08107 6.6875 16.4375 7.3567 16.4375 8.1875 C 16.4375 8.9804 17.08107 9.65625 17.875 9.65625 C 18.66886 9.65625 19.3125 8.9805 19.3125 8.1875 C 19.3125 7.3567 18.66893 6.6875 17.875 6.6875 z M 29.1875 6.71875 A 0.50004997 0.50004997 0 0 0 29.21875 6.71875 C 30.21647 6.65075 30.60884 6.87845 30.75 7.09375 A 0.50004997 0.50004997 0 0 0 30.8125 7.15625 C 30.9594 7.30575 31.04555 7.49095 31 7.84375 C 30.9545 8.19645 30.77177 8.68785 30.46875 9.21875 C 29.86272 10.28045 28.76971 11.53845 27.46875 12.71875 A 0.50004997 0.50004997 0 0 0 27.46875 12.75 C 26.203622 13.960816 24.614396 15.256077 22.84375 16.53125 A 0.50219246 0.50219246 0 0 0 22.6875 16.65625 C 21.137577 17.765202 19.454473 18.841246 17.6875 19.90625 C 17.46181 20.042281 17.226033 20.148159 17 20.28125 A 0.50004997 0.50004997 0 0 0 16.84375 20.40625 C 13.972717 22.086773 11.11028 23.512849 8.59375 24.53125 A 0.50606671 0.50606671 0 0 0 8.53125 24.5625 C 8.5219407 24.56625 8.5092993 24.558762 8.5 24.5625 A 0.50606671 0.50606671 0 0 0 8.40625 24.625 C 7.8560153 24.844514 7.2916131 25.041773 6.78125 25.21875 C 5.09857 25.78905 3.8162 25.94925 2.90625 25.84375 C 1.9963 25.73815 1.49897 25.4166 1.21875 24.875 A 0.50004997 0.50004997 0 0 0 1.1875 24.84375 C 1.00287 24.54035 0.95926 24.29425 1 24.03125 C 1.0407 23.76835 1.1918 23.46655 1.46875 23.09375 C 1.9222408 22.483217 2.8404467 21.599947 3.84375 20.6875 C 3.8759911 20.773923 3.9347411 20.851986 3.96875 20.9375 C 3.54322 21.6754 3.16501 22.283 3.15625 22.9375 C 3.1555 22.9485 3.15675 22.95875 3.15625 22.96875 C 3.13935 23.33045 3.24455 23.6968 3.46875 23.9375 C 3.69951 24.1852 4.0029 24.2947 4.3125 24.375 C 4.93171 24.5357 5.63808 24.50765 6.28125 24.34375 A 0.50004997 0.50004997 0 0 0 6.3125 24.3125 C 8.8492392 23.473993 12.332647 21.862861 15.9375 19.78125 A 0.50004997 0.50004997 0 0 0 16.375 19.5 C 16.792381 19.255053 17.205982 19.038441 17.625 18.78125 C 18.3598 18.343109 19.048339 17.915194 19.75 17.46875 A 0.50004997 0.50004997 0 0 0 20.21875 17.15625 C 23.323362 15.151369 26.04455 13.113775 27.78125 11.40625 A 0.50004997 0.50004997 0 0 0 27.8125 11.375 C 28.83347 10.2569 29.18345 9.0686 28.75 8.1875 C 28.49103 7.724 27.99161 7.48355 27.4375 7.40625 C 26.9947 7.34425 26.46879 7.45415 25.9375 7.59375 C 25.9179 7.56975 25.8946 7.55525 25.875 7.53125 C 27.1502 7.12805 28.42878 6.77665 29.1875 6.71875 z M 7.1875 7.6875 L 14.0625 7.6875 C 14.27517 7.6875 14.5 7.8485 14.5 8.1875 C 14.5 8.4189 14.27524 8.65625 14.0625 8.65625 L 6.4375 8.65625 C 6.68446 8.34215 6.9194 8.0234 7.1875 7.6875 z M 17.875 7.6875 C 18.08773 7.6875 18.3125 7.8485 18.3125 8.1875 C 18.3125 8.4189 18.0878 8.65625 17.875 8.65625 C 17.66227 8.65625 17.4375 8.4188 17.4375 8.1875 C 17.4375 7.8485 17.66227 7.6875 17.875 7.6875 z M 26.65625 8.40625 C 26.89468 8.3773875 27.09992 8.381 27.28125 8.40625 C 27.62087 8.45325 27.79823 8.5658 27.84375 8.625 C 27.84466 8.625 27.84295 8.65525 27.84375 8.65625 C 27.942167 8.8853041 27.903405 9.4205436 27.53125 10.0625 C 27.244173 9.4914126 26.894302 8.9577317 26.53125 8.4375 C 26.570591 8.4312647 26.618015 8.4108785 26.65625 8.40625 z M 20.75 11.625 L 26.0625 11.625 C 25.731844 11.915497 25.376917 12.22531 25 12.53125 L 24.4375 12.53125 L 22.5625 12.53125 L 20.75 12.53125 C 20.42903 12.53125 20.3125 12.3407 20.3125 12.0625 C 20.3125 11.7849 20.42903 11.625 20.75 11.625 z M 11.1875 13.78125 C 10.89987 13.78125 10.6875 13.98755 10.6875 14.28125 C 10.6875 14.57215 10.89977 14.78125 11.1875 14.78125 C 11.4032 14.78125 11.625 14.57495 11.625 14.28125 C 11.625 13.99065 11.4032 13.78125 11.1875 13.78125 z M 27.71875 13.8125 C 27.846666 14.509937 27.9375 15.199564 27.9375 15.9375 C 27.9375 16.116998 27.913761 16.29111 27.90625 16.46875 L 25.71875 16.46875 L 24.5625 16.46875 C 25.721106 15.579211 26.789285 14.673778 27.71875 13.8125 z M 4.03125 16.4375 L 9.25 16.4375 C 9.46268 16.4375 9.6875 16.62955 9.6875 16.96875 C 9.6875 17.19995 9.46275 17.4375 9.25 17.4375 L 4.125 17.4375 C 4.0903 17.1016 4.04735 16.7637 4.03125 16.4375 z M 17.8125 17.46875 L 17.875 17.46875 C 17.620542 17.624237 17.383091 17.7836 17.125 17.9375 C 16.959811 18.038893 16.790155 18.119201 16.625 18.21875 C 16.869662 17.788091 17.325056 17.46875 17.8125 17.46875 z M 23.25 17.46875 L 25.71875 17.46875 L 27.75 17.46875 C 27.63878 18.43525 27.38988 19.40235 27.03125 20.34375 L 18.90625 20.34375 C 20.436185 19.399295 21.892829 18.451529 23.25 17.46875 z M 17.3125 21.3125 C 17.526498 21.370789 17.70465 21.34375 17.8125 21.34375 L 26.71875 21.34375 C 26.518971 21.758233 26.274002 22.144692 26.03125 22.53125 L 19.8125 22.53125 A 0.50004997 0.50004997 0 0 0 19.78125 22.53125 A 0.50024408 0.50024408 0 1 0 19.8125 23.53125 L 25.34375 23.53125 C 23.146097 26.37362 19.758963 28.1875 15.9375 28.1875 C 14.455593 28.1875 13.030149 27.919146 11.71875 27.40625 L 15.5 27.40625 A 0.50004997 0.50004997 0 1 0 15.5 26.40625 L 9.75 26.40625 A 0.50004997 0.50004997 0 0 0 9.71875 26.40625 C 9.3276272 26.162258 8.956224 25.878734 8.59375 25.59375 C 8.6248481 25.581583 8.6562958 25.57479 8.6875 25.5625 A 0.50606671 0.50606671 0 0 0 8.71875 25.53125 C 8.7279883 25.527602 8.7407525 25.534909 8.75 25.53125 L 14.5 25.53125 A 0.50004997 0.50004997 0 1 0 14.5 24.53125 L 11.09375 24.53125 C 13.082883 23.62813 15.192328 22.54978 17.3125 21.3125 z M 4.46875 22.09375 C 4.7157654 22.571176 4.97663 23.030256 5.28125 23.46875 C 5.0070059 23.47793 4.7575533 23.457011 4.5625 23.40625 C 4.37778 23.35825 4.27335 23.3082 4.21875 23.25 C 4.16415 23.191 4.14655 23.1386 4.15625 23 A 0.50004997 0.50004997 0 0 0 4.15625 22.96875 C 4.15625 22.802235 4.2804289 22.489494 4.46875 22.09375 z M 17.875 22.53125 C 17.58738 22.53125 17.375 22.7688 17.375 23.0625 C 17.375 23.3565 17.58728 23.5625 17.875 23.5625 C 18.16262 23.5625 18.375 23.3562 18.375 23.0625 C 18.375 22.7681 18.16273 22.53125 17.875 22.53125 z M 16.9375 26.5 C 16.64992 26.5 16.4375 26.7164 16.4375 26.9375 C 16.4375 27.2319 16.64978 27.4375 16.9375 27.4375 C 17.15321 27.4375 17.375 27.2312 17.375 26.9375 C 17.375 26.7164 17.15321 26.5 16.9375 26.5 z " id="path9997" style="font-size:medium;font-style:normal;font-variant:normal;font-weight:normal;font-stretch:normal;text-indent:0;text-align:start;text-decoration:none;line-height:normal;letter-spacing:normal;word-spacing:normal;text-transform:none;direction:ltr;block-progression:tb;writing-mode:lr-tb;text-anchor:start;baseline-shift:baseline;color:#000000;fill:#000000;fill-opacity:1;stroke:none;stroke-width:0.99999994;marker:none;visibility:visible;display:inline;overflow:visible;enable-background:accumulate;font-family:Sans;-inkscape-font-specification:Sans" transform="translate(-176,1146.3622)"/></g></g></g></g></g></svg>